<?xml version="1.0" encoding="utf-8"?>
<!-- Generator: Adobe Illustrator 15.1.0, SVG Export Plug-In . SVG Version: 6.00 Build 0)  -->
<!DOCTYPE svg PUBLIC "-//W3C//DTD SVG 1.1//EN" "http://www.w3.org/Graphics/SVG/1.1/DTD/svg11.dtd">
<svg version="1.1" id="Layer_1" xmlns="http://www.w3.org/2000/svg" xmlns:xlink="http://www.w3.org/1999/xlink" x="0px" y="0px"
	 width="612px" height="792px" viewBox="0 0 612 792" enable-background="new 0 0 612 792" xml:space="preserve">
<path fill-rule="evenodd" clip-rule="evenodd" stroke="#000000" stroke-width="3" stroke-linecap="round" stroke-linejoin="round" stroke-miterlimit="22.9256" d="
	M78.739,36.5h455.521c6.739,0,16.106,6.726,12.254,12.253L359.202,317.438c-5.316,7.625-10.633,15.25-15.947,22.874
	c-12.598,18.072-11.299,19.358-11.299,41.383v113.978v162.311c14.88,5.306,24.871,15.119,24.871,26.351l-0.001,0.06
	c46.268,11.218,106.44,30.15,106.44,44.537c0,15.227-70.187,27.569-156.767,27.569c-86.58,0-156.767-12.343-156.767-27.569
	c0-14.387,60.173-33.319,106.44-44.537l-0.001-0.06c0-11.231,9.991-21.045,24.871-26.351V498.916c0-41.824,0-74.835,0-116.658
	c0-20.336,0.399-25.166-11.278-41.916l-19.889-28.53L66.486,48.753C62.632,43.225,72,36.5,78.739,36.5z"/>
</svg>
